<svg xmlns="http://www.w3.org/2000/svg" width="1254" height="1254" viewBox="0 0 1254 1254">
  <path d="M 563 697 L 563 702 L 537 741 L 537 743 L 563 744 Z M 688 696 L 688 756 L 689 743 L 714 743 L 699 718 L 688 702 Z M 626 608 L 584 670 L 583 656 L 584 743 L 667 743 L 668 749 L 668 654 L 667 670 L 634 620 L 630 616 Z" fill="rgb(198, 185, 178)" fill-rule="evenodd"/>
  <path d="M 674 604 L 669 609 L 668 637 L 668 808 L 671 816 L 675 818 L 680 818 L 684 816 L 687 811 L 687 612 L 684 606 L 680 604 Z M 571 604 L 565 609 L 564 613 L 564 811 L 567 816 L 571 818 L 576 818 L 582 813 L 583 612 L 580 606 L 576 604 Z M 727 564 L 721 569 L 720 577 L 720 811 L 724 817 L 732 818 L 736 816 L 739 811 L 739 571 L 734 565 Z M 520 564 L 517 565 L 513 570 L 513 813 L 515 816 L 519 818 L 525 818 L 531 812 L 531 570 L 527 565 Z M 778 525 L 774 528 L 772 532 L 772 825 L 777 831 L 783 832 L 790 827 L 791 822 L 791 534 L 788 527 L 785 525 Z M 467 525 L 461 530 L 461 826 L 466 831 L 474 831 L 479 825 L 479 531 L 475 526 Z M 436 478 L 436 485 L 439 489 L 447 494 L 569 593 L 576 595 L 583 588 L 585 590 L 601 596 L 617 599 L 634 599 L 645 597 L 658 593 L 668 588 L 674 594 L 682 593 L 813 488 L 816 483 L 816 479 L 812 474 L 803 474 L 705 554 L 704 552 L 709 543 L 713 531 L 716 503 L 710 475 L 701 457 L 695 449 L 683 437 L 671 429 L 649 420 L 639 418 L 613 418 L 602 420 L 580 429 L 566 439 L 552 455 L 542 474 L 536 497 L 536 520 L 541 540 L 547 552 L 546 554 L 448 474 L 443 473 L 438 475 Z M 484 392 L 482 393 L 474 409 L 469 415 L 450 425 L 451 428 L 469 436 L 472 439 L 482 459 L 484 459 L 491 444 L 496 437 L 516 427 L 514 423 L 499 416 L 494 411 Z M 768 366 L 757 387 L 736 398 L 735 401 L 755 411 L 767 433 L 769 434 L 781 412 L 800 402 L 802 399 L 783 389 L 779 385 L 772 370 Z M 627 289 L 624 291 L 609 319 L 602 326 L 571 343 L 571 345 L 593 356 L 608 367 L 624 397 L 627 397 L 629 395 L 635 382 L 647 363 L 681 345 L 680 342 L 672 339 L 650 326 L 644 320 Z M 453 159 L 429 176 L 408 194 L 388 214 L 365 242 L 341 279 L 325 312 L 314 344 L 307 374 L 303 405 L 303 912 L 243 1026 L 230 1048 L 225 1060 L 226 1065 L 230 1069 L 237 1071 L 268 1064 L 306 1058 L 367 1053 L 414 1054 L 441 1057 L 480 1064 L 528 1078 L 572 1096 L 623 1123 L 629 1123 L 669 1101 L 715 1081 L 768 1065 L 817 1056 L 854 1053 L 906 1054 L 966 1061 L 1010 1070 L 1021 1069 L 1026 1061 L 1025 1056 L 948 912 L 948 409 L 943 367 L 934 333 L 922 301 L 899 258 L 880 231 L 868 217 L 843 192 L 820 173 L 790 153 L 759 137 L 732 126 L 702 117 L 683 113 L 651 109 L 602 109 L 570 113 L 543 119 L 510 130 L 470 149 Z M 636 970 L 665 948 L 692 932 L 709 925 L 930 925 L 993 1043 L 992 1044 L 939 1035 L 903 1032 L 861 1031 L 808 1035 L 764 1043 L 719 1056 L 683 1070 L 637 1093 L 636 1038 L 653 1027 L 695 1008 L 725 999 L 770 992 L 819 992 L 859 996 L 894 1002 L 904 1001 L 907 997 L 908 992 L 906 987 L 901 984 L 855 977 L 826 974 L 765 974 L 735 978 L 703 986 L 664 1001 L 637 1016 Z M 594 927 L 605 925 L 649 925 L 657 927 L 632 945 L 618 945 Z M 257 1042 L 321 925 L 541 925 L 551 928 L 574 940 L 599 957 L 615 970 L 616 1014 L 614 1016 L 590 1002 L 567 992 L 532 981 L 490 974 L 445 973 L 405 976 L 350 984 L 344 989 L 343 992 L 344 998 L 348 1002 L 357 1002 L 385 997 L 434 992 L 480 992 L 519 997 L 554 1007 L 589 1022 L 615 1038 L 614 1093 L 580 1075 L 544 1060 L 504 1047 L 464 1038 L 412 1032 L 379 1031 L 313 1035 L 259 1044 Z M 463 179 L 481 168 L 510 154 L 537 144 L 568 136 L 605 131 L 648 131 L 685 136 L 706 141 L 743 154 L 766 165 L 800 186 L 823 204 L 850 230 L 883 274 L 902 310 L 912 336 L 920 364 L 926 400 L 926 901 L 861 888 L 820 884 L 785 884 L 757 887 L 725 895 L 702 904 L 551 904 L 509 890 L 468 884 L 432 884 L 404 886 L 366 892 L 328 901 L 324 900 L 324 416 L 328 380 L 337 343 L 345 321 L 359 291 L 376 263 L 398 235 L 426 207 Z" fill="rgb(50, 37, 26)" fill-rule="evenodd"/>
</svg>
