<svg xmlns="http://www.w3.org/2000/svg" width="1672" height="941" viewBox="0 0 1672 941">
<defs>
<radialGradient id="grad4" gradientUnits="userSpaceOnUse" cx="1297.78" cy="443.49" r="11.36">
<stop offset="0.0000" stop-color="#146afb"></stop>
<stop offset="0.6875" stop-color="#106afc"></stop>
<stop offset="0.8125" stop-color="#146dfc"></stop>
<stop offset="0.8958" stop-color="#0764fc"></stop>
<stop offset="0.9375" stop-color="#166cf9"></stop>
<stop offset="1.0000" stop-color="#5898fa"></stop>
</radialGradient>
</defs>
<path fill="#021646" stroke="#021646" stroke-width="0.80" stroke-linejoin="round" fill-rule="evenodd" d="M349 330.43 c-23.22 4.89 -41.7 19.41 -51.1 40.14 -4.35 9.59 -5.86 17.47
-5.88 30.56 -.01 11.25 -.1 11.69 -2.47 13.25 -1.35 .89 -2.98 3.36 -3.62
5.49 -4.41 14.71 16.39 22.45 23.1 8.59 2.43 -5.02 1.69 -10.01 -2.08 -14.02
-1.92 -2.04 -2.14 -3.4 -2.12 -13.11 .04 -17.58 5.64 -30.92 17.7 -42.2 23.44
-21.91 59.24 -21.57 81.56 .77 12.07 12.09 16.86 24.48 16.9 43.73 .02 8.61
-.12 9.23 -2.44 10.75 -5.81 3.81 -5.41 14.44 .71 18.79 4.45 3.17 11.79 3.06
15.36 -.23 5.93 -5.47 6.4 -11.56 1.39 -17.99 -2.69 -3.44 -2.78 -3.99 -3.2
-18.5 -.4 -13.95 -.64 -15.49 -3.64 -23.08 -7.8 -19.76 -22.95 -34.03 -43.34
-40.83 -10.12 -3.37 -26.37 -4.31 -36.81 -2.11z M679.02 419.01 c-57.05 15.35
-76.2 84.72 -34.81 126.1 18.26 18.26 46.89 26.46 71.29 20.4 30.64 -7.61
54.29 -34.42 57.4 -65.07 2.43 -23.97 -4.94 -44.71 -21.84 -61.45 -9.88 -9.79
-16.49 -13.99 -28.8 -18.3 -11.76 -4.12 -31.34 -4.89 -43.24 -1.68z m33.05
21.6 c19.26 5.72 34.02 20.94 38.43 39.63 9.55 40.5 -32.37 76.72 -71.56
61.83 -23.63 -8.98 -38.63 -33.55 -34.98 -57.32 3.22 -21 18.91 -38.36 40.04
-44.3 6.57 -1.85 21.58 -1.76 28.07 .17z M195 499.5 c0 64.57 .1 68.5 1.75
68.51 6.99 .04 33.04 2.38 43.76 3.94 42.28 6.13 76.98 18.72 104.49 37.92
l9.5 6.63 11 0 11 0 10 -6.68 c35.8 -23.91 78.68 -36.89 134.96 -40.86 8.23
-.58 15.16 -1.25 15.4 -1.49 .47 -.47 .19 -135.75 -.28 -136.22 -.15 -.15
-3.94 1.64 -8.42 3.98 l-8.14 4.26 -.02 55.75 c-.01 30.66 -.35 55.75 -.77
55.76 -3.56 .05 -30.2 3.26 -37.51 4.52 -36.52 6.29 -72.43 19.87 -98.93
37.39 -10.44 6.91 -10.84 7.07 -17.07 7.07 -6.29 0 -6.54 -.11 -17.81 -7.66
-14.63 -9.81 -35.99 -20.15 -53.59 -25.95 -16.4 -5.4 -45.44 -11.77 -60.84
-13.35 -6.05 -.62 -13.36 -1.36 -16.25 -1.65 l-5.25 -.53 0 -55.74 0 -55.74
-7.87 -4.19 c-4.33 -2.31 -8.15 -4.19 -8.5 -4.19 -.35 0 -.63 30.82 -.63 68.5z
M821.1 462.58 c-16.07 4.32 -28.35 16.75 -32.57 32.95 -1.22 4.69 -1.53 12.34
-1.53 37.68 l0 31.79 9.93 0 9.93 0 .35 -31.75 c.4 -36.4 .55 -37.14 8.86
-44.61 13.78 -12.39 35.87 -8.4 43.56 7.86 2.33 4.93 2.36 5.46 2.37 36.75
l.01 31.75 10.5 0 10.5 0 0 -30.82 c0 -18.01 -.45 -33.28 -1.09 -36.75 -3.16
-17.15 -15.79 -30.27 -33.55 -34.85 -7.54 -1.94 -20.02 -1.95 -27.25 -0z
M937.5 465.04 c-11.24 2.3 -19.72 7.19 -28 16.13 -26.32 28.42 -12.28 74.28
25.84 84.43 11.4 3.04 27.23 .82 37.32 -5.22 5.48 -3.29 15.34 -11.96 15.34
-13.5 0 -.63 -10.76 -9.43 -13.72 -11.22 -.73 -.44 -3.43 1.06 -6.74 3.76
-12.41 10.11 -28.22 10.08 -39.5 -.07 -5.32 -4.78 -10.58 -13.49 -9.64 -15.95
.45 -1.17 7.14 -1.4 40.22 -1.4 l39.68 0 -.62 -8.76 c-1.05 -14.77 -5.74
-25.54 -15.15 -34.74 -11.59 -11.35 -29.39 -16.67 -45.03 -13.46z m21.67
21.51 c7.75 3.92 15.83 12.39 15.83 16.6 0 1.76 -1.41 1.85 -27.44 1.85
-16.57 0 -27.68 -.38 -28.04 -.97 -1.53 -2.47 5.2 -11.38 11.7 -15.5 7.37
-4.67 20.76 -5.62 27.95 -1.98z" data-index="1"></path>
<path fill="#1169fa" stroke="#1169fa" stroke-width="0.80" stroke-linejoin="round" fill-rule="evenodd" d="M227.24 481.18 l.26 54.31 15.2 2.19 c43.55 6.28 77.17 18.36 107 38.46 3.96
2.67 7.51 4.86 7.88 4.86 .37 0 .43 -9.11 .13 -20.25 -.57 -21.02 -1.9 -29.71
-6.87 -44.75 -10.21 -30.91 -31.06 -54.74 -61.5 -70.26 -15.1 -7.7 -40.21
-15.62 -57.6 -18.17 l-4.76 -.7 .26 54.31z M1255 496.64 l0 66.64 4.64 -.64
c2.55 -.35 6.15 -.64 8 -.64 l3.36 0 0 -66 0 -66 -8 0 -8 0 0 66.64z M1078.1
470.58 c-22.68 6.1 -38.12 29.81 -34.3 52.67 4.48 26.81 29.74 44.7 55.64
39.42 18.26 -3.72 30.79 -14.59 36.57 -31.72 1.83 -5.42 2.11 -8.12 1.79
-16.95 -.51 -13.67 -3.87 -21.27 -13.72 -31.02 -12.56 -12.43 -29.2 -16.91
-45.98 -12.4z m26.69 17.28 c23.11 11.96 22.73 45.39 -.65 56.87 -7.73 3.8
-19.17 3.92 -26.6 .28 -13.1 -6.41 -20.36 -20.87 -17.49 -34.81 2.4 -11.63
8.82 -19.14 20.45 -23.93 4.88 -2.01 19.14 -1.07 24.29 1.59z M1179.84 470.92
c-10.76 3.44 -19.77 11.36 -24.54 21.58 l-2.8 6 -.3 32.39 -.3 32.39 4.69
-.64 c2.58 -.35 6.2 -.64 8.05 -.64 l3.36 0 0 -27.32 c0 -21.14 .33 -28.43
1.47 -32.25 6.43 -21.56 37.85 -23.91 47.4 -3.54 2.62 5.6 2.63 5.66 2.95
34.98 l.32 29.38 4.57 -.63 c2.51 -.34 6.08 -.63 7.93 -.63 l3.36 0 -.01
-28.75 c-.01 -21.15 -.37 -30.11 -1.38 -33.9 -3.95 -14.83 -15.26 -25.96
-29.81 -29.31 -6.75 -1.56 -18.65 -1.14 -24.96 .88z M1351.84 470.86 c-7.72
2.54 -11.83 5.26 -17.71 11.68 -9.11 9.96 -9.57 12.16 -9.93 47.34 -.17 16.71
-.12 30.89 .11 31.5 .28 .72 3.07 1 8 .79 l7.58 -.33 .3 -29.67 c.29 -28.31
.4 -29.86 2.5 -33.77 4.93 -9.21 13.99 -13.98 25.06 -13.19 7.55 .54 11.54
2.23 16.17 6.86 3.27 3.27 4.9 4.89 5.79 9.85 .88 4.96 1.02 13.27 1.29 29.93
l.5 30.36 7.5 -0 7.5 -0 0 -31.35 c0 -30.8 -.04 -31.46 -2.41 -37.35 -3.37
-8.39 -13.34 -18.31 -21.59 -21.5 -8.34 -3.22 -22.74 -3.75 -30.66 -1.14z
M1453 470.6 c-7.5 2.01 -15.26 6.86 -21.03 13.15 -22.86 24.91 -12.91 66.43
18.52 77.25 11.96 4.11 26.23 3.22 37.18 -2.33 5.56 -2.82 15.33 -11.19 15.33
-13.14 0 -1.43 -10.25 -9.53 -12.06 -9.53 -.63 0 -3.32 1.96 -5.99 4.35
-15.11 13.59 -39.66 7.41 -46.84 -11.78 -1.05 -2.79 -1.7 -5.41 -1.45 -5.83
.25 -.41 17.3 -.75 37.9 -.75 l37.44 0 0 -7.53 c0 -30.35 -28.98 -51.9 -59
-43.87z m26.54 17.13 c5 2.59 11.86 9.89 13.91 14.82 .85 2.03 1.54 3.86 1.54
4.07 0 .21 -13.08 .38 -29.07 .38 l-29.07 0 .67 -2.25 c2.24 -7.52 8.16
-13.83 16.71 -17.83 5.79 -2.71 19.33 -2.27 25.3 .82z M1290.47 471.21 c-.27
.71 -.38 21.52 -.24 46.25 l.26 44.95 2.5 -.06 c1.38 -.03 4.87 -.12 7.76 -.2
l5.26 -.14 -.26 -45.75 -.26 -45.75 -7.26 -.29 c-5.24 -.21 -7.4 .07 -7.76 1z" data-index="2"></path>
<path fill="#05b899" stroke="#05b899" stroke-width="0.80" stroke-linejoin="round" fill-rule="evenodd" d="M490.5 429.56 c-6.05 1.31 -16.4 4.24 -23 6.49 -50.94 17.43 -79.67 47.98
-90.69 96.45 -2.17 9.54 -3.94 49.13 -2.17 48.37 .47 -.2 4.68 -2.91 9.36
-6.01 27.6 -18.32 63.92 -31.03 105.75 -37.01 l15.25 -2.18 0 -54.34 c0
-51.11 -.1 -54.33 -1.75 -54.25 -.96 .05 -6.7 1.16 -12.75 2.47z" data-index="3"></path>
<path fill="url(#grad4)" stroke="none" fill-rule="evenodd" d="M1290.4 436.4 c-9.17 9.17 1.83 23.18 13.6 17.33 1.38 -.68 3.31 -2.9 4.31
-4.93 1.57 -3.2 1.64 -4.23 .57 -7.81 -1.64 -5.48 -4.97 -7.99 -10.61 -7.99
-3.74 0 -5.01 .55 -7.87 3.4z" data-index="4"></path>
<path fill="#05b899" stroke="none" fill-rule="evenodd" d="M433.37 401.5 c0 6.05 .17 8.4 .37 5.21 .2 -3.18 .2 -8.13 -0 -11 -.2 -2.87
-.36 -.26 -.36 5.79z M290.99 403.2 c-.27 5.89 -.14 10.35 .29 9.91 .43 -.44
.66 -5.25 .49 -10.7 l-.29 -9.91 -.49 10.7z M694.73 416.72 c1.78 .22 4.93
.22 7 .01 2.12 -.22 .7 -.4 -3.23 -.4 -3.85 -0 -5.55 .17 -3.77 .39z M194.46
431.25 c-.26 .69 -.36 31.85 -.22 69.25 l.26 68 4.76 .09 4.76 .09 -4.52 -.4
-4.52 -.4 .26 -68.94 c.14 -37.92 .14 -68.94 -.02 -68.94 -.15 0 -.5 .56 -.76
1.25z M537.47 492.5 c0 33.55 .13 47.13 .28 30.18 .15 -16.95 .15 -44.4 -0
-61 -.15 -16.6 -.28 -2.73 -.28 30.82z M947 504 l-28.5 .55 28.19 .23 c17.96
.14 28.42 -.14 28.81 -.77 .34 -.55 .48 -.9 .31 -.77 -.17 .12 -13.13 .47
-28.81 .77z M807.44 535.5 c-0 16.5 .14 23.39 .3 15.31 .17 -8.08 .17 -21.58
0 -30 -.17 -8.42 -.3 -1.81 -.31 14.69z M954.25 522.74 c3.16 .2 8.34 .2 11.5
0 3.16 -.2 .58 -.36 -5.75 -.36 -6.33 0 -8.91 .16 -5.75 .36z M985.25 522.73
c2.06 .22 5.44 .22 7.5 0 2.06 -.22 .38 -.39 -3.75 -.39 -4.12 0 -5.81 .18
-3.75 .39z M537.08 565.69 c-.07 1.84 -.77 2.25 -4.33 2.58 l-4.25 .38 4.28
.17 c4.34 .18 6.03 -1.22 4.89 -4.04 -.28 -.71 -.55 -.3 -.59 .91z M362.75
617.72 c1.79 .22 4.71 .22 6.5 0 1.79 -.22 .32 -.4 -3.25 -.4 -3.57 0 -5.04
.18 -3.25 .4z" data-index="5"></path>
<path fill="#09baa4" stroke="none" fill-rule="evenodd" d="M381.11 516.14 c-1.16 3.44 -2.08 6.73 -2.04 7.31 .04 .58 1.16 -2.06 2.49
-5.87 1.33 -3.81 2.25 -7.1 2.04 -7.31 -.21 -.21 -1.33 2.43 -2.49 5.87z" data-index="6"></path>
<path fill="#00b18f" stroke="none" fill-rule="evenodd" d="M373 578.44 c0 1.34 .45 2.72 1 3.06 .58 .36 1 -.66 1 -2.44 0 -1.68 -.45
-3.06 -1 -3.06 -.55 0 -1 1.1 -1 2.44z" data-index="7"></path>
<path fill="#021646" stroke="#021646" stroke-width="1.50" stroke-opacity="0.65" stroke-linejoin="round" fill-rule="evenodd" d="M349 330.43 c-23.22 4.89 -41.7 19.41 -51.1 40.14 -4.35 9.59 -5.86 17.47
-5.88 30.56 -.01 11.25 -.1 11.69 -2.47 13.25 -5.49 3.6 -5.46 14.18 .06
18.52 9.51 7.48 23.52 -1.3 20.43 -12.8 -.6 -2.22 -2.05 -4.71 -3.23 -5.54 -2
-1.4 -2.14 -2.31 -2.03 -12.79 .19 -18.21 5.66 -31.34 17.76 -42.65 23.44
-21.91 59.24 -21.57 81.56 .77 12.07 12.09 16.86 24.48 16.9 43.73 .02 8.61
-.12 9.23 -2.44 10.75 -5.81 3.81 -5.41 14.44 .71 18.79 4.45 3.17 11.79 3.06
15.36 -.23 5.83 -5.38 6.44 -12.5 1.52 -17.68 -2.54 -2.67 -2.65 -3.27 -3.21
-18.26 -.54 -14.35 -.82 -16.1 -3.78 -23.63 -7.76 -19.73 -22.92 -34.03
-43.33 -40.83 -10.12 -3.37 -26.37 -4.31 -36.81 -2.11z M679.02 419.01
c-57.05 15.35 -76.2 84.72 -34.81 126.1 18.26 18.26 46.89 26.46 71.29 20.4
30.64 -7.61 54.29 -34.42 57.4 -65.07 2.43 -23.97 -4.94 -44.71 -21.84 -61.45
-9.88 -9.79 -16.49 -13.99 -28.8 -18.3 -11.76 -4.12 -31.34 -4.89 -43.24
-1.68z M195 499.5 c0 64.57 .1 68.5 1.75 68.51 6.99 .04 33.04 2.38 43.76
3.94 42.28 6.13 76.98 18.72 104.49 37.92 l9.5 6.63 11 0 11 0 10 -6.68
c37.06 -24.74 79.24 -37.06 141.75 -41.4 8.08 -.56 8.76 -.77 8.82 -2.77 .37
-11.26 .31 -134.66 -.07 -134.68 -.27 -.01 -4.21 1.9 -8.74 4.25 l-8.24 4.27
-.01 55.75 c-.01 30.66 -.35 55.75 -.76 55.76 -3.56 .05 -30.2 3.26 -37.51
4.52 -36.52 6.29 -72.43 19.87 -98.93 37.39 -10.44 6.91 -10.84 7.07 -17.07
7.07 -6.29 0 -6.54 -.11 -17.81 -7.66 -14.63 -9.81 -35.99 -20.15 -53.59
-25.95 -16.4 -5.4 -45.44 -11.77 -60.84 -13.35 -6.05 -.62 -13.36 -1.36
-16.25 -1.65 l-5.25 -.53 0 -55.74 0 -55.74 -7.87 -4.19 c-4.33 -2.31 -8.15
-4.19 -8.5 -4.19 -.35 0 -.63 30.82 -.63 68.5z M712.07 440.61 c19.26 5.72
34.02 20.94 38.43 39.63 9.55 40.5 -32.37 76.72 -71.56 61.83 -23.63 -8.98
-38.63 -33.55 -34.98 -57.32 3.22 -21 18.91 -38.36 40.04 -44.3 6.57 -1.85
21.58 -1.76 28.07 .17z M821.1 462.58 c-16.07 4.32 -28.35 16.75 -32.57 32.95
-1.22 4.69 -1.53 12.34 -1.53 37.68 l0 31.79 9.93 0 9.93 0 .35 -31.75 c.4
-36.4 .55 -37.14 8.86 -44.61 13.78 -12.39 35.87 -8.4 43.56 7.86 2.33 4.93
2.36 5.46 2.37 36.75 l.01 31.75 10.5 0 10.5 0 0 -30.82 c0 -18.01 -.45
-33.28 -1.09 -36.75 -3.16 -17.15 -15.79 -30.27 -33.55 -34.85 -7.54 -1.94
-20.02 -1.95 -27.25 -0z M937.5 465.04 c-11.24 2.3 -19.72 7.19 -28 16.13
-26.32 28.42 -12.28 74.28 25.84 84.43 11.4 3.04 27.23 .82 37.32 -5.22 5.48
-3.29 15.34 -11.96 15.34 -13.5 0 -.63 -10.76 -9.43 -13.72 -11.22 -.73 -.44
-3.43 1.06 -6.74 3.76 -15.82 12.88 -38.02 8.39 -47.1 -9.53 -2.17 -4.27
-4.03 -6.25 .29 -7.15 4.32 -.9 14.83 -.74 37.42 -.74 l40.15 0 -.62 -8.76
c-1.05 -14.77 -5.74 -25.54 -15.15 -34.74 -11.59 -11.35 -29.39 -16.67 -45.03
-13.46z M959.78 486.89 c2.18 1.11 5.44 3.27 7.26 4.8 3.78 3.18 9.16 11.19
8.38 12.46 -.79 1.28 -56.41 1.1 -56.41 -.19 0 -3.79 6.19 -11.6 12.22 -15.43
7.67 -4.86 20.77 -5.62 28.55 -1.65z" data-index="8"></path>
</svg>